<svg height="64" viewBox="0 0 64 64" width="64" xmlns="http://www.w3.org/2000/svg"><g fill="#3880ff" transform="matrix(.43537415 0 0 .43537415 -16.631293 -79.368707)"><path d="m111.8 222.5c-18.5 0-33.5 15-33.5 33.5s15 33.5 33.5 33.5 33.5-15 33.5-33.5c-.1-18.5-15.1-33.5-33.5-33.5z"/><circle cx="159.8" cy="210.2" r="15.3"/><path d="m178.6 225.5-.6-1.4-1 1.2c-2.5 2.8-5.7 5-9.2 6.3l-1 .4.4 1c3.1 7.3 4.6 15.1 4.6 23 0 33.1-26.9 60.1-60.1 60.1s-60-27-60-60.1 26.9-60.1 60.1-60.1c9 0 17.6 2 25.7 5.8l.9.4.4-1c1.5-3.5 3.8-6.5 6.8-8.9l1.2-1-1.4-.7c-10.5-5.4-21.8-8.2-33.7-8.2-40.5 0-73.5 33-73.5 73.5s33 73.5 73.5 73.5 73.5-33 73.5-73.5c0-10.4-2.2-20.6-6.6-30.3z"/></g></svg>